<?xml version="1.0" standalone="no"?>
<!DOCTYPE svg PUBLIC "-//W3C//DTD SVG 20010904//EN"
 "http://www.w3.org/TR/2001/REC-SVG-20010904/DTD/svg10.dtd">
<svg version="1.0" xmlns="http://www.w3.org/2000/svg"
 width="1322.000000pt" height="384.000000pt" viewBox="0 0 1322.000000 384.000000"
 preserveAspectRatio="xMidYMid meet">

<g transform="translate(0.000000,384.000000) scale(0.100000,-0.100000)"
fill="#000000" stroke="none">
<path d="M1565 3645 c-318 -49 -595 -168 -845 -363 -73 -58 -241 -231 -303
-315 -79 -105 -157 -238 -201 -344 -20 -49 -40 -95 -45 -103 -5 -9 -12 -31
-16 -50 -4 -19 -11 -41 -16 -50 -5 -8 -20 -69 -35 -135 -31 -144 -43 -418 -25
-580 12 -108 58 -303 91 -388 36 -89 148 -310 182 -358 18 -25 52 -73 75 -106
59 -85 226 -250 324 -322 46 -34 89 -65 94 -69 13 -10 120 -74 165 -99 19 -11
89 -41 154 -68 381 -153 804 -164 1216 -31 96 30 256 107 345 164 153 99 311
235 421 363 87 101 183 254 252 399 28 60 37 84 77 195 8 22 27 94 42 160 27
115 28 131 28 370 0 225 -2 260 -23 353 -61 271 -147 463 -314 697 -65 91
-282 304 -381 373 -48 34 -89 62 -92 62 -3 0 -33 17 -67 38 -35 21 -103 55
-153 76 -49 20 -97 41 -106 45 -20 11 -145 45 -261 71 -122 28 -447 36 -583
15z m545 -334 c172 -39 274 -78 423 -166 101 -59 93 -65 -80 -64 -172 1 -268
-6 -373 -27 -80 -17 -213 -54 -208 -59 2 -2 39 -22 83 -45 44 -24 117 -67 162
-97 l83 -55 72 12 c108 19 320 24 418 10 95 -14 258 -56 278 -73 17 -14 92
-140 92 -154 0 -12 -18 -15 -200 -33 -219 -21 -443 -89 -650 -197 -104 -55
-234 -138 -293 -188 -7 -6 -29 -23 -49 -39 -21 -16 -38 -34 -38 -40 0 -6 27
-38 61 -71 33 -33 85 -93 116 -132 31 -40 59 -73 63 -73 3 0 24 15 46 33 135
113 343 225 509 275 174 52 236 62 406 69 150 5 165 4 179 -12 12 -14 16 -57
19 -199 l3 -182 -83 -17 c-106 -23 -271 -66 -287 -76 -10 -6 -10 -30 -1 -111
6 -56 9 -150 7 -206 -2 -57 -1 -104 3 -104 3 0 32 9 65 21 53 19 158 49 169
49 22 0 -22 -102 -90 -210 -61 -97 -247 -302 -302 -333 -27 -16 -26 2 5 100
72 223 96 377 89 564 -7 207 -34 343 -111 554 -20 54 -35 53 -186 -12 -67 -29
-169 -83 -175 -93 -3 -5 3 -35 14 -67 29 -89 51 -200 58 -289 l6 -81 -54 -37
c-30 -20 -66 -46 -81 -58 -23 -18 -30 -19 -43 -8 -8 7 -15 19 -15 26 0 36
-174 334 -248 426 -93 115 -213 238 -280 288 -19 14 -41 32 -50 41 -22 20
-144 109 -152 109 -8 0 -100 -127 -100 -138 0 -6 -3 -12 -8 -14 -11 -4 -82
-143 -82 -159 0 -8 33 -38 73 -67 230 -168 424 -422 523 -687 43 -115 46 -183
8 -232 -32 -42 -72 -63 -123 -63 -95 0 -161 65 -161 159 0 32 68 227 89 256 4
5 13 24 20 42 13 31 11 35 -52 125 -74 106 -163 208 -180 208 -15 0 -58 -73
-128 -217 -29 -62 -58 -113 -63 -113 -5 0 -41 24 -80 53 -121 89 -134 97 -326
198 -60 32 -175 76 -245 94 -33 9 -71 20 -85 25 -14 5 -60 16 -104 25 l-78 17
4 181 c3 123 8 190 17 206 l13 24 132 -7 c72 -4 158 -14 191 -22 97 -22 112
-20 130 24 15 34 93 171 105 182 17 16 70 103 66 108 -13 12 -248 62 -345 72
-137 14 -143 16 -135 43 13 46 106 175 132 186 55 21 216 41 335 41 269 0 550
-86 765 -233 79 -54 242 -193 242 -205 0 -4 9 -13 21 -20 18 -11 26 -10 66 13
67 40 154 82 217 105 31 12 56 25 56 30 0 26 -197 202 -315 281 -108 72 -111
74 -180 108 -107 51 -154 71 -169 71 -8 0 -17 4 -21 9 -3 5 -20 12 -38 16 -17
4 -50 13 -72 20 -118 39 -380 68 -527 57 -72 -5 -78 13 -15 49 23 13 51 29 62
36 117 67 277 124 430 152 33 6 69 13 80 15 11 3 101 3 200 2 139 -3 201 -8
275 -25z m-1519 -1990 c143 -49 363 -174 459 -261 158 -143 266 -273 348 -422
40 -72 41 -90 5 -86 -23 2 -36 18 -78 89 -64 110 -125 188 -230 294 -81 82
-273 225 -301 225 -8 0 -6 -25 8 -82 39 -165 42 -178 34 -185 -18 -18 -226
235 -269 327 -4 8 -18 35 -32 59 -39 69 -34 73 56 42z"/>
<path d="M1282 2644 c-113 -104 -253 -279 -307 -384 -56 -110 -93 -188 -100
-210 -4 -14 -13 -38 -20 -55 -19 -42 -53 -162 -60 -211 l-6 -41 73 -31 c40
-17 102 -47 138 -67 36 -20 77 -41 93 -48 15 -6 27 -15 27 -20 0 -4 5 -5 10
-2 6 3 10 20 10 36 0 120 90 387 184 544 85 142 256 332 363 402 18 12 21 19
12 29 -24 30 -273 134 -318 134 -9 0 -53 -34 -99 -76z"/>
<path d="M10420 2544 c0 -125 26 -170 111 -191 30 -8 34 -14 37 -46 l3 -36
-98 -3 -98 -3 0 -50 0 -50 98 -3 97 -3 0 -163 c0 -89 2 -165 4 -167 2 -2 32
-2 65 -1 l61 4 0 164 c0 124 3 164 13 165 6 0 52 0 100 -1 l88 -1 -3 53 -3 53
-97 3 -98 3 0 84 0 85 -58 0 c-79 0 -92 16 -92 115 l0 75 -65 0 -65 0 0 -86z"/>
<path d="M11860 2567 l0 -63 -54 -26 c-43 -21 -58 -36 -75 -70 -24 -51 -27
-123 -7 -171 15 -36 58 -87 73 -87 5 0 14 -5 20 -11 8 -8 1 -20 -30 -43 -57
-44 -90 -114 -95 -201 l-4 -70 65 0 65 0 4 70 c5 76 34 147 67 165 76 40 135
-27 149 -167 l7 -68 65 0 65 0 -3 75 c-4 98 -31 154 -94 195 -26 17 -47 34
-47 38 -1 4 15 21 34 38 19 17 44 47 57 67 30 51 35 53 106 45 l62 -6 0 52 0
51 -70 0 c-62 0 -71 2 -81 23 -19 36 -58 67 -108 85 l-46 18 -3 62 -3 62 -59
0 -60 0 0 -63z m120 -172 c49 -25 52 -96 7 -162 -19 -30 -27 -33 -62 -31 -32
2 -43 9 -62 37 -25 37 -31 98 -12 132 20 38 80 49 129 24z"/>
<path d="M7200 2579 c0 -10 33 -90 50 -121 14 -25 14 -26 -30 -48 -98 -50
-122 -135 -118 -409 l3 -175 60 0 60 -1 6 220 c4 121 7 224 8 228 3 18 63 67
82 67 30 0 75 -29 90 -59 9 -18 15 -93 19 -241 l5 -215 63 -3 64 -3 -4 223
c-3 218 -4 224 -30 273 -31 59 -51 79 -101 100 -22 9 -42 26 -47 40 -5 14 -19
45 -30 69 -11 25 -20 50 -20 55 0 7 -26 11 -65 11 -39 0 -65 -4 -65 -11z"/>
<path d="M9710 2435 l0 -125 65 0 c69 0 77 -7 51 -45 -63 -93 -101 -209 -111
-341 -7 -106 -6 -108 80 -98 l52 6 2 89 c1 60 9 110 24 156 l22 68 44 3 c82 6
111 -48 111 -208 0 -89 3 -109 16 -114 23 -9 252 -7 256 2 2 4 1 27 -2 52 l-5
45 -65 0 -65 0 -6 80 c-10 122 -25 156 -93 212 -8 7 -40 16 -70 19 -67 8 -69
14 -21 95 l34 59 -84 0 c-50 0 -87 4 -91 11 -3 6 -7 43 -8 83 l-1 71 -67 3
-68 3 0 -126z"/>
<path d="M11133 2549 c-91 -27 -141 -139 -107 -242 9 -28 28 -70 41 -92 13
-22 30 -56 39 -75 8 -19 20 -44 26 -55 7 -12 14 -72 16 -143 l4 -123 65 3 65
3 -4 131 c-2 78 -8 137 -14 145 -7 8 -15 29 -19 47 -6 27 -4 32 12 32 70 0
166 67 182 126 7 29 9 29 87 32 l79 3 -2 37 c-1 20 -2 40 -2 45 -1 4 -35 7
-76 7 -69 0 -76 2 -84 23 -12 30 -55 72 -95 91 -38 18 -159 21 -213 5z m166
-107 c34 -33 35 -88 3 -131 -20 -28 -94 -57 -113 -45 -30 18 -52 139 -31 170
28 42 102 45 141 6z"/>
<path d="M12520 2554 c-51 -19 -78 -36 -100 -61 -23 -25 -25 -36 -25 -118 0
-93 5 -106 75 -215 5 -8 23 -40 39 -72 16 -31 41 -77 57 -103 33 -56 27 -63
-57 -61 l-59 1 0 -52 0 -53 171 0 c198 0 187 -12 110 122 -85 149 -111 199
-111 216 0 12 14 21 50 29 59 14 100 44 128 93 54 97 30 195 -63 255 -22 14
-52 20 -115 22 -47 1 -92 0 -100 -3z m162 -114 c21 -26 23 -77 6 -116 -11 -24
-80 -64 -110 -64 -42 0 -76 119 -47 171 23 44 118 49 151 9z"/>
<path d="M5014 2532 c-90 -43 -119 -97 -119 -227 0 -105 16 -142 80 -187 31
-22 57 -30 115 -36 l75 -7 2 -124 1 -123 64 0 63 0 2 171 c0 94 -2 171 -5 171
-156 3 -199 7 -225 25 -36 23 -47 52 -47 121 0 50 3 57 40 94 34 34 46 40 83
40 23 0 67 -7 97 -15 30 -8 54 -13 55 -12 19 43 25 61 25 75 0 29 -50 44 -160
49 -89 3 -111 1 -146 -15z"/>
<path d="M5881 2530 c-83 -25 -135 -60 -171 -117 -82 -129 -25 -306 115 -356
64 -22 88 -22 155 3 30 11 56 20 57 20 2 0 14 18 28 40 24 37 25 47 25 182 0
79 4 149 9 156 5 8 23 12 47 10 l39 -3 5 -130 c4 -110 8 -134 25 -157 30 -39
68 -58 118 -58 25 0 48 -4 51 -8 2 -4 -1 -21 -9 -37 -15 -34 -41 -129 -53
-196 l-9 -46 60 -7 c76 -8 191 -8 211 0 11 4 16 19 16 50 l0 44 -60 0 c-86 0
-87 10 -22 187 17 45 38 120 48 166 17 80 17 85 -1 131 -23 59 -53 91 -114
119 -42 20 -65 22 -276 23 -199 2 -238 0 -294 -16z m515 -82 c33 -16 45 -53
43 -134 -1 -56 -6 -78 -21 -94 -23 -24 -55 -26 -80 -3 -15 14 -18 32 -18 128
0 61 3 114 6 117 6 7 41 0 70 -14z m-436 -132 c0 -138 -1 -146 -22 -160 -55
-39 -111 -4 -128 81 -25 121 30 222 123 223 l27 0 0 -144z"/>
<path d="M6660 2452 c0 -94 1 -99 30 -134 24 -29 42 -39 86 -49 30 -7 57 -16
60 -21 5 -7 -28 -115 -46 -149 -7 -13 -27 -129 -44 -246 -3 -19 3 -23 38 -28
23 -3 84 -5 136 -3 l95 3 3 48 3 47 -59 0 c-36 0 -64 5 -70 13 -10 12 8 113
28 162 9 21 51 163 69 228 l9 37 -84 0 c-121 0 -124 2 -124 105 l0 85 -65 0
-65 0 0 -98z"/>
<path d="M7870 2430 l0 -119 -97 -3 -98 -3 0 -45 0 -45 97 -3 98 -3 2 -192 3
-192 95 -3 c108 -4 196 17 230 53 28 30 37 103 16 146 -20 43 -60 68 -123 75
-97 11 -94 9 -91 62 l3 47 95 5 95 5 3 47 3 47 -98 3 -98 3 -2 35 c-1 19 -2
72 -2 118 l-1 82 -65 0 -65 0 0 -120z m228 -426 c49 -34 7 -99 -61 -92 -29 3
-32 6 -35 42 -2 21 -1 44 2 52 7 19 66 18 94 -2z"/>
<path d="M8500 2501 c-82 -19 -119 -47 -155 -116 -18 -35 -20 -58 -20 -224 1
-170 2 -189 22 -226 45 -85 101 -106 296 -110 l117 -3 0 52 0 51 -121 1 -121
1 -30 31 c-31 30 -31 32 -36 159 -8 229 16 277 138 278 36 0 83 -4 106 -8 l40
-8 13 41 c7 23 10 45 7 48 -28 27 -190 48 -256 33z"/>
<path d="M3913 2367 c-47 -14 -76 -37 -100 -81 -14 -26 -18 -68 -21 -247 l-4
-216 66 1 66 1 0 186 c0 195 7 236 42 258 30 19 116 16 139 -5 17 -16 19 -34
19 -225 0 -114 3 -209 8 -212 4 -2 33 -1 64 1 l58 4 2 216 3 217 52 13 c63 15
95 5 123 -40 18 -30 20 -51 20 -225 l0 -193 98 0 c193 0 285 65 255 180 -14
55 -68 90 -149 98 l-69 7 -2 45 c-5 83 -25 148 -55 179 -56 57 -221 67 -314
20 -16 -8 -33 -7 -68 5 -64 22 -181 28 -233 13z m751 -357 c21 -8 26 -16 26
-43 0 -39 -29 -61 -76 -55 -27 3 -29 6 -32 56 -3 52 -3 52 27 52 16 0 41 -4
55 -10z"/>
<path d="M9037 2213 c-4 -3 -7 -26 -7 -49 0 -55 4 -56 170 -52 l125 3 3 53 3
52 -144 0 c-79 0 -147 -3 -150 -7z"/>
<path d="M3797 1623 c-4 -3 -7 -96 -7 -205 l0 -199 33 3 32 3 3 138 c1 75 6
137 11 137 10 0 18 -20 65 -159 19 -57 39 -108 44 -113 5 -5 20 -8 32 -6 24 3
23 1 80 172 49 147 60 140 60 -35 l0 -140 33 3 32 3 0 200 0 200 -57 3 -56 3
-7 -33 c-4 -18 -11 -39 -15 -48 -4 -8 -21 -55 -37 -105 -15 -49 -33 -89 -38
-88 -6 0 -20 32 -33 70 -13 37 -35 98 -48 136 l-26 67 -47 0 c-26 0 -51 -3
-54 -7z"/>
<path d="M4316 1608 c-8 -30 -8 -352 0 -372 4 -10 18 -16 40 -16 l34 0 0 205
0 205 -34 0 c-26 0 -35 -5 -40 -22z"/>
<path d="M4480 1425 l0 -205 35 0 34 0 3 132 c2 94 7 133 15 135 7 3 17 -6 23
-19 5 -13 40 -72 78 -133 65 -105 71 -110 105 -113 l37 -3 0 205 0 206 -30 0
-30 0 0 -135 c0 -101 -3 -135 -12 -135 -7 0 -31 30 -53 65 -22 36 -55 88 -72
116 -18 28 -33 55 -33 60 0 14 -36 29 -69 29 l-31 0 0 -205z"/>
<path d="M4910 1425 l0 -206 38 3 37 3 0 200 0 200 -37 3 -38 3 0 -206z"/>
<path d="M5123 1610 c-39 -23 -53 -48 -53 -94 0 -49 44 -90 112 -106 29 -7 69
-20 88 -29 30 -14 35 -21 35 -51 0 -27 -6 -37 -25 -48 -49 -26 -149 8 -150 51
0 13 -8 17 -35 17 -31 0 -35 -3 -35 -25 0 -16 14 -40 36 -63 l36 -37 95 0 c94
0 95 0 123 32 36 40 47 91 28 129 -11 25 -25 35 -89 65 -8 4 -41 12 -73 19
-45 9 -59 17 -66 36 -27 70 72 104 132 44 21 -22 39 -30 64 -30 l34 0 -20 40
c-11 22 -33 46 -50 55 -43 22 -147 20 -187 -5z"/>
<path d="M5427 1623 c-4 -3 -7 -16 -7 -28 0 -20 7 -23 56 -28 31 -3 59 -9 63
-12 3 -4 6 -75 7 -158 0 -84 1 -158 2 -164 1 -8 17 -13 37 -13 l35 0 0 170 0
169 58 3 c56 3 57 3 60 36 l3 32 -154 0 c-84 0 -157 -3 -160 -7z"/>
<path d="M5815 1618 c-3 -7 -4 -99 -3 -203 l3 -190 33 -3 c36 -4 35 -6 36 88
l1 65 70 3 c62 3 71 1 87 -20 10 -13 18 -35 18 -49 0 -15 3 -41 6 -58 6 -28
10 -31 46 -31 25 0 37 4 33 11 -4 6 -11 40 -15 76 -6 44 -15 72 -29 87 -20 21
-21 24 -5 37 48 40 49 120 2 166 -28 27 -33 28 -154 31 -98 3 -125 1 -129 -10z
m227 -65 c24 -21 23 -75 -1 -97 -15 -13 -34 -16 -87 -14 l-69 3 -3 49 c-2 27
-1 55 2 62 8 21 134 19 158 -3z"/>
<path d="M6170 1625 c0 -3 14 -27 30 -53 17 -27 30 -54 30 -61 0 -6 4 -11 9
-11 5 0 13 -10 17 -22 4 -13 17 -39 30 -58 20 -29 24 -47 24 -117 l0 -83 40 0
40 0 0 89 c0 66 4 92 15 101 8 7 15 16 15 21 0 5 23 46 50 90 28 44 50 87 50
95 0 9 -11 14 -33 14 -30 0 -36 -6 -80 -80 -27 -44 -52 -80 -57 -80 -5 0 -30
36 -57 80 -46 77 -49 80 -85 80 -21 0 -38 -2 -38 -5z"/>
<path d="M6830 1611 c-46 -24 -89 -94 -96 -157 -10 -77 10 -131 68 -188 l50
-48 77 3 c67 4 83 8 116 33 21 16 43 42 49 58 6 15 14 28 18 28 4 0 8 33 8 73
0 61 -5 80 -30 123 -40 71 -80 94 -161 94 -43 0 -76 -6 -99 -19z m162 -53 c37
-30 48 -62 48 -135 0 -67 -2 -75 -31 -108 -27 -30 -37 -35 -75 -35 -25 0 -56
7 -71 17 -70 46 -71 208 -2 257 28 19 108 21 131 4z"/>
<path d="M7200 1425 l0 -205 41 0 41 0 -3 80 c-2 43 0 82 4 86 3 4 43 6 87 5
l81 -2 -3 33 -3 33 -70 2 c-38 1 -76 2 -82 2 -9 1 -13 18 -13 50 0 48 0 49 36
56 20 3 62 5 93 4 l56 -3 3 32 3 32 -135 0 -136 0 0 -205z"/>
<path d="M7704 1617 c-2 -7 -3 -98 -2 -202 l3 -190 35 0 35 0 3 88 3 87 89 0
90 0 0 -90 0 -90 35 0 35 0 0 205 0 205 -35 0 -34 0 -3 -77 -3 -78 -87 -3 -88
-3 0 65 c0 35 -3 71 -6 80 -7 19 -62 22 -70 3z"/>
<path d="M8134 1617 c-2 -7 -3 -98 -2 -202 l3 -190 142 -3 142 -3 7 25 c3 14
3 30 -1 35 -4 7 -48 11 -110 11 -63 0 -106 4 -110 11 -4 6 -4 30 0 54 l6 44
97 3 97 3 3 28 3 27 -100 0 c-56 0 -101 3 -102 8 0 4 -2 26 -3 49 -3 50 2 53
127 53 l87 0 0 30 0 30 -140 0 c-105 0 -142 -3 -146 -13z"/>
<path d="M8613 1618 c-5 -7 -22 -49 -38 -93 -15 -44 -33 -93 -40 -110 -20 -46
-56 -147 -62 -172 -5 -20 -1 -23 29 -23 31 0 36 4 55 50 l21 50 76 0 c74 0 77
-1 87 -27 28 -69 31 -73 66 -73 18 0 33 4 33 8 0 9 -84 244 -100 277 -5 11
-14 38 -21 60 -16 55 -26 65 -64 65 -18 0 -37 -6 -42 -12z m60 -124 c5 -16 15
-44 24 -62 22 -49 12 -62 -47 -62 -59 0 -61 5 -28 98 24 67 36 73 51 26z"/>
<path d="M8900 1425 l0 -206 138 3 137 3 3 27 c4 33 -8 37 -121 40 l-78 3 -2
165 -2 165 -37 3 -38 3 0 -206z"/>
<path d="M9158 1607 c-7 -36 0 -43 37 -39 19 2 46 1 60 -2 l25 -6 0 -170 0
-170 35 0 35 0 0 165 c0 187 -1 185 85 185 45 0 46 1 43 28 l-3 27 -156 3
-157 2 -4 -23z"/>
<path d="M9547 1624 c-4 -4 -7 -97 -7 -206 l0 -199 38 3 37 3 3 87 c3 101 5
102 102 94 30 -3 61 -5 68 -6 9 0 12 -25 12 -90 l0 -90 34 0 c19 0 36 4 38 10
2 5 2 98 0 205 l-3 196 -32 -3 -32 -3 -5 -75 -5 -75 -87 -3 -87 -3 -3 78 -3
78 -30 3 c-17 2 -34 0 -38 -4z"/>
<path d="M10297 1623 c-4 -3 -7 -96 -7 -205 l0 -199 148 3 147 3 0 30 0 30
-110 5 -110 5 0 50 0 50 100 5 c100 5 100 5 103 32 l3 27 -103 3 -103 3 -1 48
c-1 37 2 47 15 48 23 2 77 5 144 7 56 2 57 2 57 32 l0 30 -138 0 c-76 0 -142
-3 -145 -7z"/>
<path d="M10630 1602 c0 -28 2 -30 63 -38 l62 -9 1 -95 c0 -52 1 -128 2 -167
l2 -73 35 0 35 0 0 170 0 169 61 7 c57 6 60 8 57 33 l-3 26 -157 3 -158 3 0
-29z"/>
<path d="M11018 1543 c0 -49 0 -137 0 -198 1 -60 2 -113 2 -117 0 -5 16 -8 35
-8 l35 0 0 85 c0 74 2 86 20 95 20 11 68 12 128 3 l32 -5 0 -90 0 -89 38 3 37
3 0 200 0 200 -37 3 -38 3 0 -80 0 -80 -86 -3 c-47 -2 -88 -1 -90 1 -2 2 -4
40 -4 83 l0 78 -35 0 -35 0 -2 -87z"/>
<path d="M11444 1617 c-2 -7 -3 -98 -2 -202 l3 -190 38 -3 37 -3 0 205 0 206
-35 0 c-20 0 -38 -6 -41 -13z"/>
<path d="M11695 1611 c-66 -41 -95 -99 -95 -190 0 -71 27 -130 76 -167 34 -26
45 -29 118 -29 78 0 82 1 118 34 20 18 44 49 53 68 20 41 22 142 5 188 -14 36
-55 82 -92 101 -40 21 -146 18 -183 -5z m162 -56 c70 -49 70 -211 -1 -260 -11
-8 -42 -15 -67 -15 -39 0 -53 5 -77 29 -16 16 -29 35 -30 43 -1 7 -4 25 -8 40
-11 48 5 115 36 148 24 25 35 30 77 30 27 0 58 -7 70 -15z"/>
<path d="M12065 1598 c-3 -18 -5 -109 -3 -203 l3 -170 35 0 35 0 5 75 5 75 72
2 c77 2 125 20 143 52 15 30 12 118 -6 146 -25 38 -83 55 -189 55 l-94 0 -6
-32z m213 -44 c16 -11 22 -25 22 -52 0 -58 -10 -65 -87 -66 l-68 -1 -3 68 -3
67 58 0 c37 0 67 -6 81 -16z"/>
<path d="M12450 1425 l0 -205 35 0 35 0 0 205 0 205 -35 0 -35 0 0 -205z"/>
<path d="M12724 1613 c-4 -10 -8 -20 -9 -23 -6 -24 -29 -87 -35 -95 -4 -5 -15
-36 -24 -67 -10 -32 -22 -60 -27 -64 -5 -3 -9 -13 -9 -22 0 -9 -6 -29 -14 -43
-7 -14 -16 -37 -20 -52 -6 -25 -4 -27 27 -27 35 0 38 4 66 73 10 26 13 27 91
27 68 0 81 -3 86 -17 3 -10 10 -26 15 -35 5 -10 9 -25 9 -33 0 -11 11 -15 39
-15 l40 0 -11 33 c-5 17 -16 46 -23 62 -7 17 -18 48 -25 70 -6 22 -15 49 -20
60 -33 76 -48 114 -54 140 -9 36 -21 45 -62 45 -21 0 -35 -6 -40 -17z m64
-115 c8 -18 19 -52 27 -76 13 -41 12 -42 -10 -48 -12 -3 -37 -4 -56 -2 -30 3
-34 6 -31 30 1 15 9 39 17 55 8 15 15 35 15 44 0 16 9 29 19 29 4 0 12 -15 19
-32z"/>
<path d="M10024 1446 c-3 -8 -4 -23 -2 -33 3 -15 14 -18 68 -18 l65 0 0 30 c0
30 0 30 -63 33 -48 2 -64 0 -68 -12z"/>
</g>
</svg>
