<?xml version="1.0" encoding="UTF-8"?>
<!DOCTYPE svg PUBLIC "-//W3C//DTD SVG 1.1//EN" "http://www.w3.org/Graphics/SVG/1.1/DTD/svg11.dtd">
<!-- Creator: CorelDRAW X7 -->
<svg xmlns="http://www.w3.org/2000/svg" xml:space="preserve" version="1.1" style="shape-rendering:geometricPrecision; text-rendering:geometricPrecision; image-rendering:optimizeQuality; fill-rule:evenodd; clip-rule:evenodd"
viewBox="0 0 1698 1588"
 xmlns:xlink="http://www.w3.org/1999/xlink">
 <defs>
  <style type="text/css">
   <![CDATA[
    .fil0 {fill:#0B94DD}
    .fil2 {fill:#E56800}
    .fil1 {fill:#FBC82D}
    .fil3 {fill:white;fill-rule:nonzero}
   ]]>
  </style>
 </defs>
 <g id="Слой_x0020_1">
  <metadata id="CorelCorpID_0Corel-Layer"/>
  <g id="_958017008">
   <g>
    <polygon class="fil0" points="1698,329 1045,0 0,957 0,1423 0,1587 1698,1587 "/>
    <polygon class="fil1" points="1698,604 1063,767 0,5 0,1423 0,1587 1698,1587 "/>
    <polygon class="fil2" points="1698,958 633,1355 0,1132 0,1423 0,1587 1698,1587 "/>
   </g>
   <g>
    <polygon class="fil3" points="1698,990 687,1394 0,1165 0,1086 684,1315 1698,910 "/>
    <polygon class="fil3" points="1698,647 1055,807 0,51 0,-1 56,-1 1071,726 1698,570 "/>
   </g>
  </g>
 </g>
</svg>
