<?xml version="1.0" encoding="UTF-8"?>
<!DOCTYPE svg PUBLIC "-//W3C//DTD SVG 1.1//EN" "http://www.w3.org/Graphics/SVG/1.1/DTD/svg11.dtd">
<!-- Creator: CorelDRAW X7 -->
<svg xmlns="http://www.w3.org/2000/svg" xml:space="preserve" version="1.1" style="shape-rendering:geometricPrecision; text-rendering:geometricPrecision; image-rendering:optimizeQuality; fill-rule:evenodd; clip-rule:evenodd"
viewBox="0 0 1698 1588"
 xmlns:xlink="http://www.w3.org/1999/xlink">
 <defs>
  <style type="text/css">
   <![CDATA[
    .fil2 {fill:#0B94DD}
    .fil1 {fill:#E56800}
    .fil0 {fill:#FBC82D}
   ]]>
  </style>
 </defs>
 <g id="Слой_x0020_1">
  <metadata id="CorelCorpID_0Corel-Layer"/>
  <path class="fil0" d="M545 1309l-179 258c-206,-143 -339,-369 -362,-619 -40,-431 248,-816 658,-908l55 310c-231,59 -403,269 -403,519 0,182 92,343 231,440z"/>
  <path class="fil1" d="M741 26c36,-4 72,-7 108,-7 243,0 462,103 617,266l0 0c4,4 8,8 11,12l0 0 1 1 0 0c4,5 8,9 12,14l3 2c3,4 6,8 10,12l3 4 2 2 5 7 2 2 5 7 2 2 4 5 7 10 1 2 2 2 1 2c45,61 81,129 108,202l1 0c2,6 4,12 6,18l1 2c1,5 3,10 4,14l3 8 2 8c1,4 3,8 4,12l1 5c2,5 3,11 5,16l0 1c88,341 -45,716 -355,921l-173 -263c144,-96 240,-260 240,-446 0,-143 -55,-272 -146,-368l0 0 -4 -4 -6 -6 -2 -2 -6 -6 -4 -4 -5 -4 -5 -5 -4 -4 -5 -4 -6 -5 -3 -3 -7 -5 -3 -2 -8 -6 -1 -2c-3,-2 -6,-4 -9,-6l-2 -1 -8 -6 -3 -2 -8 -5 -3 -2 -8 -5 -3 -2 -8 -5 -3 -1 -9 -5 -2 -2c-3,-1 -6,-3 -9,-4l-3 -2c-3,-1 -6,-3 -9,-4l-2 -1c-4,-2 -7,-3 -10,-5l-2 -1 -10 -4 -1 0 -1 -1c-3,-1 -7,-3 -10,-4l-1 0c-4,-2 -8,-3 -12,-5l0 0c-4,-1 -8,-3 -12,-4l0 0 -1 0c-3,-2 -7,-3 -11,-4l-1 0 -1 -1c-3,-1 -7,-2 -10,-3l-2 0c-4,-1 -8,-2 -12,-3l0 -1c-4,-1 -8,-2 -12,-2l-2 -1c-4,-1 -7,-2 -11,-2l-2 -1c-4,0 -8,-1 -12,-2l-1 0c-4,-1 -8,-2 -12,-2l-1 0c-4,-1 -8,-1 -12,-2l-1 0c-4,-1 -8,-1 -13,-2l-1 0c-4,0 -8,0 -13,-1l0 0c-4,0 -8,0 -12,-1l-1 0 -1 0c-4,0 -8,0 -12,0l-1 0 0 0c-5,0 -9,0 -14,0 -4,0 -9,0 -13,0l-1 0 -1 0c-4,0 -7,0 -11,0l-1 0 -1 0c-4,1 -8,1 -13,1l0 0 0 0 0 0c-4,1 -8,1 -12,1l0 0 -55 -310z"/>
  <polygon class="fil2" points="772,503 1066,1065 738,1137 "/>
 </g>
</svg>
