<svg xmlns="http://www.w3.org/2000/svg" border="0" data-ac-wrapper-id="9" width="749" height="400" class="anychart-ui-support" ac-id="ac_stage_ac0a8a6_0" role="presentation" style="display: block;"><defs><clipPath clip-rule="nonzero" id="ac_clip_ac0a8a6_y"><path data-ac-wrapper-id="45" id="ac_rect_ac0a8a6_z" fill="none" stroke="black" d="M 61 39 L 730 39 730 356 61 356 61 39 Z"/></clipPath><clipPath clip-rule="nonzero" id="ac_clip_ac0a8a6_16"><path data-ac-wrapper-id="51" id="ac_rect_ac0a8a6_17" fill="none" stroke="black" d="M 61 39 L 730 39 730 356 61 356 61 39 Z"/></clipPath><clipPath clip-rule="nonzero" id="ac_clip_ac0a8a6_1e"><path data-ac-wrapper-id="57" id="ac_rect_ac0a8a6_1f" fill="none" stroke="black" d="M 61 39 L 730 39 730 356 61 356 61 39 Z"/></clipPath><clipPath clip-rule="nonzero" id="ac_clip_ac0a8a6_1k"><path data-ac-wrapper-id="61" id="ac_rect_ac0a8a6_1l" fill="none" stroke="black" d="M 60 39 L 729 39 729 356 60 356 60 39 Z"/></clipPath></defs><g data-ac-wrapper-id="10" id="ac_layer_ac0a8a6_1"><g data-ac-wrapper-id="13" role="article" aria-label="area chart  entitled Percent Stacked Step Area Chart, with 3 step-area series, . Y-scale minimum value is 0 , maximum value is 100. X-scale with 4 categories: Winter, Spring, Summer, Autumn, . " id="ac_chart_ac0a8a6_2"><g data-ac-wrapper-id="14" id="ac_layer_ac0a8a6_4"><path data-ac-wrapper-id="15" id="ac_path_ac0a8a6_3" fill="#ffffff" stroke="none" d="M 0 0 L 749 0 749 0 749 400 749 400 0 400 0 400 0 0 0 0 Z"/></g><path data-ac-wrapper-id="60" clip-path="url(&quot;#ac_clip_ac0a8a6_1k&quot;)" clipPathUnits="userSpaceOnUse" id="ac_path_ac0a8a6_1m" fill="none" stroke="none" d="M 0,0"/><g data-ac-wrapper-id="54" clip-path="url(&quot;#ac_clip_ac0a8a6_1e&quot;)" clipPathUnits="userSpaceOnUse" id="ac_layer_ac0a8a6_1g"><path data-ac-wrapper-id="56" id="ac_path_ac0a8a6_1c" fill="#64b5f6" fill-opacity="0.65" stroke="none" d="M 143.625 118.25 L 143.625 39 310.875 39 310.875 39 310.875 39 478.125 39 478.125 39 478.125 39 645.375 39 645.375 39 645.375 39 645.375 118.25 645.375 165.8 478.125 165.8 478.125 102.39999999999998 310.875 102.39999999999998 310.875 118.25 143.625 118.25 Z"/><path data-ac-wrapper-id="55" id="ac_path_ac0a8a6_1b" fill="none" stroke="#64b5f6" stroke-width="1.5" d="M 143.625 39 L 310.875 39 310.875 39 310.875 39 478.125 39 478.125 39 478.125 39 645.375 39 645.375 39 645.375 39"/></g><g data-ac-wrapper-id="48" clip-path="url(&quot;#ac_clip_ac0a8a6_16&quot;)" clipPathUnits="userSpaceOnUse" id="ac_layer_ac0a8a6_18"><path data-ac-wrapper-id="50" id="ac_path_ac0a8a6_14" fill="#1976d2" fill-opacity="0.65" stroke="none" d="M 143.625 276.75 L 143.625 118.25 310.875 118.25 310.875 102.39999999999998 310.875 102.39999999999998 478.125 102.39999999999998 478.125 165.8 478.125 165.8 645.375 165.8 645.375 118.25 645.375 118.25 645.375 197.5 645.375 260.9 478.125 260.9 478.125 229.2 310.875 229.2 310.875 276.75 143.625 276.75 Z"/><path data-ac-wrapper-id="49" id="ac_path_ac0a8a6_13" fill="none" stroke="#1976d2" stroke-width="1.5" d="M 143.625 118.25 L 310.875 118.25 310.875 102.39999999999998 310.875 102.39999999999998 478.125 102.39999999999998 478.125 165.8 478.125 165.8 645.375 165.8 645.375 118.25 645.375 118.25"/></g><g data-ac-wrapper-id="42" clip-path="url(&quot;#ac_clip_ac0a8a6_y&quot;)" clipPathUnits="userSpaceOnUse" id="ac_layer_ac0a8a6_10"><path data-ac-wrapper-id="44" id="ac_path_ac0a8a6_w" fill="#ef6c00" fill-opacity="0.65" stroke="none" d="M 143.625 356 L 143.625 276.75 310.875 276.75 310.875 229.2 310.875 229.2 478.125 229.2 478.125 260.9 478.125 260.9 645.375 260.9 645.375 197.5 645.375 197.5 645.375 356 645.375 356 478.125 356 478.125 356 310.875 356 310.875 356 143.625 356 Z"/><path data-ac-wrapper-id="43" id="ac_path_ac0a8a6_v" fill="none" stroke="#ef6c00" stroke-width="1.5" d="M 143.625 276.75 L 310.875 276.75 310.875 229.2 310.875 229.2 478.125 229.2 478.125 260.9 478.125 260.9 645.375 260.9 645.375 197.5 645.375 197.5"/></g><g data-ac-wrapper-id="58" clip-path="url(&quot;#ac_clip_ac0a8a6_1e&quot;)" clipPathUnits="userSpaceOnUse" id="ac_layer_ac0a8a6_1h"/><g data-ac-wrapper-id="59" clip-path="url(&quot;#ac_clip_ac0a8a6_1e&quot;)" clipPathUnits="userSpaceOnUse" id="ac_layer_ac0a8a6_1i"><path data-ac-wrapper-id="62" id="ac_path_ac0a8a6_1n" fill="#333" stroke="#212121" d="M 484.125 39 A 6 6 0 0 1 472.125 39 A 6 6 0 0 1 484.125 39" fill-opacity="0.85" stroke-width="1.5"/><path data-ac-wrapper-id="75" id="ac_path_ac0a8a6_20" fill="#64b5f6" stroke="#467fac" d="M 651.375 39 A 6 6 0 0 1 639.375 39 A 6 6 0 0 1 651.375 39" fill-opacity="1" stroke-opacity="1"/></g><g data-ac-wrapper-id="52" clip-path="url(&quot;#ac_clip_ac0a8a6_16&quot;)" clipPathUnits="userSpaceOnUse" id="ac_layer_ac0a8a6_19"/><g data-ac-wrapper-id="53" clip-path="url(&quot;#ac_clip_ac0a8a6_16&quot;)" clipPathUnits="userSpaceOnUse" id="ac_layer_ac0a8a6_1a"><path data-ac-wrapper-id="63" id="ac_path_ac0a8a6_1o" fill="#333" stroke="#212121" d="M 484.125 165.8 L 481.125 168.8 478.125 171.8 475.125 168.8 472.125 165.8 475.125 162.8 478.125 159.8 481.125 162.8 484.125 165.8 Z" fill-opacity="0.85" stroke-width="1.5"/><path data-ac-wrapper-id="76" id="ac_path_ac0a8a6_21" fill="#1976d2" stroke="#125393" d="M 651.375 118.25 L 648.375 121.25 645.375 124.25 642.375 121.25 639.375 118.25 642.375 115.25 645.375 112.25 648.375 115.25 651.375 118.25 Z" fill-opacity="1" stroke-opacity="1"/></g><g data-ac-wrapper-id="46" clip-path="url(&quot;#ac_clip_ac0a8a6_y&quot;)" clipPathUnits="userSpaceOnUse" id="ac_layer_ac0a8a6_11"/><g data-ac-wrapper-id="47" clip-path="url(&quot;#ac_clip_ac0a8a6_y&quot;)" clipPathUnits="userSpaceOnUse" id="ac_layer_ac0a8a6_12"><path data-ac-wrapper-id="64" id="ac_path_ac0a8a6_1p" fill="#333" stroke="#212121" d="M 472.125 254.89999999999998 L 484.125 254.89999999999998 484.125 266.9 472.125 266.9 472.125 254.89999999999998 Z" fill-opacity="0.85" stroke-width="1.5"/><path data-ac-wrapper-id="77" id="ac_path_ac0a8a6_22" fill="#ef6c00" stroke="#a74c00" d="M 639.375 191.5 L 651.375 191.5 651.375 203.5 639.375 203.5 639.375 191.5 Z" fill-opacity="1" stroke-opacity="1"/></g><path data-ac-wrapper-id="18" id="ac_path_ac0a8a6_7" fill="none" stroke="#CECECE" d="M 60 356.5 L 730 356.5"/><path data-ac-wrapper-id="19" id="ac_path_ac0a8a6_8" fill="none" stroke="#CECECE" d="M 60.5 357 L 60.5 363 M 227.5 357 L 227.5 363 M 394.5 357 L 394.5 363 M 561.5 357 L 561.5 363 M 729.5 357 L 729.5 363"/><g data-ac-wrapper-id="20" id="ac_layer_ac0a8a6_h"><g data-ac-wrapper-id="21" id="ac_layer_ac0a8a6_a"><g data-ac-wrapper-id="22" id="ac_unmanageable-layer_ac0a8a6_9"><text aria-hidden="true" font-style="normal" font-variant="normal" font-family="Verdana, Helvetica, Arial, sans-serif" font-size="12" font-weight="normal" letter-spacing="normal" text-decoration="none" fill="#7c868e" opacity="1" x="123.32841491699219" y="379.06349182128906">Winter</text></g></g><g data-ac-wrapper-id="23" id="ac_layer_ac0a8a6_c"><g data-ac-wrapper-id="24" id="ac_unmanageable-layer_ac0a8a6_b"><text aria-hidden="true" font-style="normal" font-variant="normal" font-family="Verdana, Helvetica, Arial, sans-serif" font-size="12" font-weight="normal" letter-spacing="normal" text-decoration="none" fill="#7c868e" opacity="1" x="290.9166679382324" y="379.06349182128906">Spring</text></g></g><g data-ac-wrapper-id="25" id="ac_layer_ac0a8a6_e"><g data-ac-wrapper-id="26" id="ac_unmanageable-layer_ac0a8a6_d"><text aria-hidden="true" font-style="normal" font-variant="normal" font-family="Verdana, Helvetica, Arial, sans-serif" font-size="12" font-weight="normal" letter-spacing="normal" text-decoration="none" fill="#7c868e" opacity="1" x="451.4983367919922" y="379.06349182128906">Summer</text></g></g><g data-ac-wrapper-id="27" id="ac_layer_ac0a8a6_g"><g data-ac-wrapper-id="28" id="ac_unmanageable-layer_ac0a8a6_f"><text aria-hidden="true" font-style="normal" font-variant="normal" font-family="Verdana, Helvetica, Arial, sans-serif" font-size="12" font-weight="normal" letter-spacing="normal" text-decoration="none" fill="#7c868e" opacity="1" x="620.51686668396" y="379.06349182128906">Autumn</text></g></g></g><path data-ac-wrapper-id="29" id="ac_path_ac0a8a6_i" fill="none" stroke="#CECECE" d="M 60.5 39 L 60.5 357"/><path data-ac-wrapper-id="30" id="ac_path_ac0a8a6_j" fill="none" stroke="#CECECE" d="M 60 356.5 L 54 356.5 M 60 276.5 L 54 276.5 M 60 197.5 L 54 197.5 M 60 118.5 L 54 118.5 M 60 39.5 L 54 39.5"/><g data-ac-wrapper-id="31" id="ac_layer_ac0a8a6_u"><g data-ac-wrapper-id="32" id="ac_layer_ac0a8a6_l"><g data-ac-wrapper-id="33" id="ac_unmanageable-layer_ac0a8a6_k"><text aria-hidden="true" font-style="normal" font-variant="normal" font-family="Verdana, Helvetica, Arial, sans-serif" font-size="12" font-weight="normal" letter-spacing="normal" text-decoration="none" fill="#7c868e" opacity="1" x="29.45436668395996" y="360.2619047164917">0%</text></g></g><g data-ac-wrapper-id="34" id="ac_layer_ac0a8a6_n"><g data-ac-wrapper-id="35" id="ac_unmanageable-layer_ac0a8a6_m"><text aria-hidden="true" font-style="normal" font-variant="normal" font-family="Verdana, Helvetica, Arial, sans-serif" font-size="12" font-weight="normal" letter-spacing="normal" text-decoration="none" fill="#7c868e" opacity="1" x="21.82539939880371" y="281.2619047164917">25%</text></g></g><g data-ac-wrapper-id="36" id="ac_layer_ac0a8a6_p"><g data-ac-wrapper-id="37" id="ac_unmanageable-layer_ac0a8a6_o"><text aria-hidden="true" font-style="normal" font-variant="normal" font-family="Verdana, Helvetica, Arial, sans-serif" font-size="12" font-weight="normal" letter-spacing="normal" text-decoration="none" fill="#7c868e" opacity="1" x="21.82539939880371" y="202.2619047164917">50%</text></g></g><g data-ac-wrapper-id="38" id="ac_layer_ac0a8a6_r"><g data-ac-wrapper-id="39" id="ac_unmanageable-layer_ac0a8a6_q"><text aria-hidden="true" font-style="normal" font-variant="normal" font-family="Verdana, Helvetica, Arial, sans-serif" font-size="12" font-weight="normal" letter-spacing="normal" text-decoration="none" fill="#7c868e" opacity="1" x="21.82539939880371" y="122.2619047164917">75%</text></g></g><g data-ac-wrapper-id="40" id="ac_layer_ac0a8a6_t"><g data-ac-wrapper-id="41" id="ac_unmanageable-layer_ac0a8a6_s"><text aria-hidden="true" font-style="normal" font-variant="normal" font-family="Verdana, Helvetica, Arial, sans-serif" font-size="12" font-weight="normal" letter-spacing="normal" text-decoration="none" fill="#7c868e" opacity="1" x="14.196430206298828" y="43.2619047164917">100%</text></g></g></g><g data-ac-wrapper-id="16" transform="matrix(1,0,0,1,237.427001953125,10)" id="ac_layer_ac0a8a6_6"><text data-ac-wrapper-id="17" font-style="normal" font-variant="normal" font-family="Verdana, Helvetica, Arial, sans-serif" font-size="16" font-weight="normal" fill="#7c868e" letter-spacing="normal" text-decoration="none" direction="ltr" text-anchor="middle" x="132.072998046875" y="15.873014450073242" aria-hidden="true" id="ac_text_ac0a8a6_5" style="user-select: none; font-family: Verdana, Helvetica, Arial, sans-serif; opacity: 1;"><tspan x="132.072998046875" dy="0">Percent Stacked Step Area Chart</tspan></text></g></g></g></svg>