<?xml version="1.0" encoding="UTF-8"?>
<!DOCTYPE svg PUBLIC "-//W3C//DTD SVG 1.1//EN" "http://www.w3.org/Graphics/SVG/1.1/DTD/svg11.dtd">
<!-- Creator: CorelDRAW X7 -->
<svg xmlns="http://www.w3.org/2000/svg" xml:space="preserve" version="1.1" style="shape-rendering:geometricPrecision; text-rendering:geometricPrecision; image-rendering:optimizeQuality; fill-rule:evenodd; clip-rule:evenodd"
viewBox="0 0 1698 1588"
 xmlns:xlink="http://www.w3.org/1999/xlink">
 <defs>
  <style type="text/css">
   <![CDATA[
    .fil2 {fill:#0B94DD}
    .fil1 {fill:#E56800}
    .fil0 {fill:#FBC82D}
   ]]>
  </style>
 </defs>
 <g id="Слой_x0020_1">
  <metadata id="CorelCorpID_0Corel-Layer"/>
  <polygon class="fil0" points="335,1588 0,1588 0,1154 335,1154 "/>
  <polygon class="fil1" points="404,1588 1007,1588 1007,1154 404,1154 "/>
  <polygon class="fil2" points="1698,1588 1077,1588 1077,1154 1698,1154 "/>
  <polygon class="fil0" points="396,434 0,434 0,0 396,0 "/>
  <polygon class="fil1" points="467,434 1023,434 1023,0 467,0 "/>
  <polygon class="fil2" points="1698,434 1094,434 1094,0 1698,0 "/>
  <polygon class="fil0" points="566,1011 0,1011 0,577 566,577 "/>
  <polygon class="fil1" points="644,1011 1267,1011 1267,577 644,577 "/>
  <polygon class="fil2" points="1698,1011 1346,1011 1346,577 1698,577 "/>
  <polygon class="fil2" points="1698,1011 1346,1011 1346,577 1698,577 "/>
 </g>
</svg>
