<?xml version="1.0" encoding="UTF-8"?>
<!DOCTYPE svg PUBLIC "-//W3C//DTD SVG 1.1//EN" "http://www.w3.org/Graphics/SVG/1.1/DTD/svg11.dtd">
<!-- Creator: CorelDRAW X7 -->
<svg xmlns="http://www.w3.org/2000/svg" xml:space="preserve" version="1.1" style="shape-rendering:geometricPrecision; text-rendering:geometricPrecision; image-rendering:optimizeQuality; fill-rule:evenodd; clip-rule:evenodd"
viewBox="0 0 1698 1588"
 xmlns:xlink="http://www.w3.org/1999/xlink">
 <defs>
  <style type="text/css">
   <![CDATA[
    .fil0 {fill:#0B94DD}
    .fil2 {fill:#E56800}
    .fil1 {fill:#FBC82D}
    .fil3 {fill:white;fill-rule:nonzero}
   ]]>
  </style>
 </defs>
 <g id="Слой_x0020_1">
  <metadata id="CorelCorpID_0Corel-Layer"/>
  <path class="fil0" d="M869 1587c437,0 794,-356 794,-793 0,-437 -357,-794 -794,-794 -437,0 -794,357 -794,794 0,437 357,793 794,793z"/>
  <path class="fil1" d="M869 794l510 -608c180,151 284,373 284,608 0,438 -356,794 -794,794 -439,0 -794,-356 -794,-794l794 0z"/>
  <path class="fil2" d="M869 794l138 781c-46,8 -92,13 -138,13 -439,0 -794,-356 -794,-794l794 0z"/>
  <polygon class="fil3" points="906,787 1044,1569 970,1582 832,800 "/>
  <polygon class="fil3" points="869,831 75,831 75,756 869,756 "/>
  <polygon class="fil3" points="840,770 1350,162 1408,210 898,818 "/>
 </g>
</svg>
