<?xml version="1.0" encoding="UTF-8"?>
<!DOCTYPE svg PUBLIC "-//W3C//DTD SVG 1.1//EN" "http://www.w3.org/Graphics/SVG/1.1/DTD/svg11.dtd">
<!-- Creator: CorelDRAW X7 -->
<svg xmlns="http://www.w3.org/2000/svg" xml:space="preserve" version="1.1" style="shape-rendering:geometricPrecision; text-rendering:geometricPrecision; image-rendering:optimizeQuality; fill-rule:evenodd; clip-rule:evenodd"
viewBox="0 0 1698 1588"
 xmlns:xlink="http://www.w3.org/1999/xlink">
 <defs>
  <style type="text/css">
   <![CDATA[
    .fil2 {fill:#0B94DD}
    .fil0 {fill:#E56800}
    .fil1 {fill:#FBC82D}
    .fil5 {fill:#0B94DD;fill-rule:nonzero}
    .fil4 {fill:#E56800;fill-rule:nonzero}
    .fil3 {fill:#FBC82D;fill-rule:nonzero}
   ]]>
  </style>
 </defs>
 <g id="Слой_x0020_1">
  <metadata id="CorelCorpID_0Corel-Layer"/>
  <g id="_880730464">
   <path class="fil0" d="M1077 1587c-96,0 -173,-77 -173,-172 0,-96 77,-173 173,-173 95,0 172,77 172,173 0,95 -77,173 -172,172z"/>
   <path class="fil0" d="M1077 1587c-96,0 -173,-77 -173,-172 0,-96 77,-173 173,-173 95,0 172,77 172,173 0,95 -77,173 -172,172z"/>
   <path class="fil1" d="M624 346c-96,0 -173,-78 -173,-173 0,-95 77,-173 173,-173 95,0 172,78 172,173 0,95 -77,173 -172,173z"/>
   <path class="fil1" d="M1077 1181c-96,0 -173,-78 -173,-173 0,-95 77,-173 173,-173 95,0 172,78 172,173 0,95 -77,173 -172,173z"/>
   <path class="fil1" d="M1077 1181c-96,0 -173,-78 -173,-173 0,-95 77,-173 173,-173 95,0 172,78 172,173 0,95 -77,173 -172,173z"/>
   <path class="fil2" d="M1077 346c-96,0 -173,-78 -173,-173 0,-95 77,-173 173,-173 95,0 172,78 172,173 0,95 -77,173 -172,173z"/>
   <path class="fil2" d="M1077 346c-96,0 -173,-78 -173,-173 0,-95 77,-173 173,-173 95,0 172,78 172,173 0,95 -77,173 -172,173z"/>
   <path class="fil2" d="M173 1587c-95,0 -173,-77 -173,-172 0,-96 78,-173 173,-173 95,0 173,77 173,173 0,95 -78,173 -173,172z"/>
   <path class="fil0" d="M173 1181c-95,0 -173,-78 -173,-173 0,-95 78,-173 173,-173 95,0 173,78 173,173 0,95 -78,173 -173,173z"/>
   <path class="fil1" d="M173 760c-95,0 -173,-78 -173,-173 0,-95 78,-173 173,-173 95,0 173,78 173,173 0,95 -78,173 -173,173z"/>
   <polygon class="fil3" points="1499,1453 1044,1031 606,256 196,567 150,507 629,144 1104,984 1550,1398 "/>
   <polygon class="fil4" points="1524,1463 1068,1452 183,1042 215,974 1085,1377 1526,1388 "/>
   <polygon class="fil5" points="1499,614 1084,233 654,1031 225,1441 173,1386 593,985 1064,113 1550,559 "/>
   <path class="fil2" d="M624 1181c-96,0 -173,-78 -173,-173 0,-95 77,-173 173,-173 95,0 172,78 172,173 0,95 -77,173 -172,173z"/>
   <path class="fil0" d="M1525 1587c-96,0 -173,-77 -173,-172 0,-96 77,-173 173,-173 95,0 173,77 173,173 0,95 -78,173 -173,172z"/>
   <path class="fil2" d="M1525 760c-96,0 -173,-78 -173,-173 0,-95 77,-173 173,-173 95,0 173,78 173,173 0,95 -78,173 -173,173z"/>
  </g>
 </g>
</svg>
