<?xml version="1.0" encoding="UTF-8"?>
<!DOCTYPE svg PUBLIC "-//W3C//DTD SVG 1.1//EN" "http://www.w3.org/Graphics/SVG/1.1/DTD/svg11.dtd">
<!-- Creator: CorelDRAW X7 -->
<svg xmlns="http://www.w3.org/2000/svg" xml:space="preserve" version="1.1" style="shape-rendering:geometricPrecision; text-rendering:geometricPrecision; image-rendering:optimizeQuality; fill-rule:evenodd; clip-rule:evenodd"
viewBox="0 0 1698 1588"
 xmlns:xlink="http://www.w3.org/1999/xlink">
 <defs>
  <style type="text/css">
   <![CDATA[
    .fil2 {fill:#0B94DD}
    .fil1 {fill:#E56800}
    .fil0 {fill:#FBC82D}
   ]]>
  </style>
 </defs>
 <g id="Слой_x0020_1">
  <metadata id="CorelCorpID_0Corel-Layer"/>
  <polygon class="fil0" points="0,397 0,198 464,198 464,397 "/>
  <polygon class="fil1" points="0,453 0,1103 464,1103 464,453 "/>
  <polygon class="fil2" points="0,1588 0,1159 464,1159 464,1588 "/>
  <polygon class="fil0" points="1234,693 1234,413 1698,413 1698,693 "/>
  <polygon class="fil1" points="1234,747 1234,1301 1698,1301 1698,747 "/>
  <polygon class="fil2" points="1234,1588 1234,1349 1698,1349 1698,1588 "/>
  <polygon class="fil0" points="617,693 617,0 1081,0 1081,693 "/>
  <polygon class="fil1" points="617,747 617,1226 1081,1226 1081,747 "/>
  <polygon class="fil2" points="617,1588 617,1281 1081,1281 1081,1588 "/>
 </g>
</svg>
