<?xml version="1.0" encoding="UTF-8"?>
<!DOCTYPE svg PUBLIC "-//W3C//DTD SVG 1.1//EN" "http://www.w3.org/Graphics/SVG/1.1/DTD/svg11.dtd">
<!-- Creator: CorelDRAW X7 -->
<svg xmlns="http://www.w3.org/2000/svg" xml:space="preserve" version="1.1" style="shape-rendering:geometricPrecision; text-rendering:geometricPrecision; image-rendering:optimizeQuality; fill-rule:evenodd; clip-rule:evenodd"
viewBox="0 0 1698 1588"
 xmlns:xlink="http://www.w3.org/1999/xlink">
 <defs>
  <style type="text/css">
   <![CDATA[
    .fil2 {fill:#0B94DD}
    .fil1 {fill:#E56800}
    .fil0 {fill:#FBC82D}
    .fil3 {fill:#FEFEFE;fill-rule:nonzero}
   ]]>
  </style>
 </defs>
 <g id="Слой_x0020_1">
  <metadata id="CorelCorpID_0Corel-Layer"/>
  <path class="fil0" d="M1234 462l0 1 0 999c0,64 104,117 232,117 128,0 232,-53 232,-117l0 0 0 -999 0 -1c0,-70 -104,-128 -232,-128 -128,0 -232,58 -232,128z"/>
  <path class="fil1" d="M1234 998l0 0 0 464c0,64 104,117 232,117 128,0 232,-53 232,-117l0 0 0 -464 0 0c0,-71 -104,-129 -232,-129 -128,0 -232,58 -232,129z"/>
  <path class="fil0" d="M1 848l0 0 0 614c0,64 105,117 232,117 128,0 232,-53 232,-117l0 0 0 -614 0 0c0,-71 -104,-129 -232,-129 -127,0 -232,58 -232,129z"/>
  <path class="fil1" d="M1 1273l0 0 0 189c0,64 105,117 232,117 128,0 232,-53 232,-117l0 0 0 -189 0 0c0,-71 -104,-128 -232,-128 -127,0 -232,57 -232,128z"/>
  <path class="fil0" d="M618 129l0 0 0 1333c0,64 104,117 232,117 127,0 232,-53 232,-117l0 0 0 -1333c0,-71 -105,-129 -232,-129 -128,0 -232,58 -232,129z"/>
  <path class="fil2" d="M618 498l0 0 0 964c0,64 104,117 232,117 127,0 232,-53 232,-117l0 0 0 -964c0,-71 -105,-129 -232,-129 -128,0 -232,58 -232,129z"/>
  <path class="fil2" d="M846 607c128,0 232,-52 232,-115 0,-64 -104,-116 -232,-116 -127,0 -232,52 -232,116 0,63 105,115 232,115z"/>
  <path class="fil3" d="M846 582c61,0 115,-12 153,-31 34,-17 54,-38 54,-59 0,-22 -20,-43 -54,-60 -38,-19 -93,-31 -153,-31 -60,0 -114,12 -152,31 -34,17 -55,38 -55,60 0,21 21,42 55,59 38,19 92,31 152,31l0 0zm175 13c-45,23 -107,37 -175,37l0 0c-67,0 -129,-14 -175,-37 -50,-25 -82,-62 -82,-103 0,-42 32,-79 82,-104 46,-23 108,-37 175,-37 68,0 130,14 175,37 51,25 82,62 82,104 0,41 -31,78 -82,103z"/>
  <path class="fil1" d="M1466 1099c128,0 232,-51 232,-115 0,-64 -104,-115 -232,-115 -128,0 -232,52 -232,115 0,64 104,115 232,115z"/>
  <path class="fil3" d="M1466 1075c60,0 114,-12 153,-32 33,-16 54,-37 54,-59 0,-22 -21,-43 -54,-59 -39,-20 -93,-31 -153,-31 -60,0 -114,11 -153,31 -33,16 -54,37 -54,59 0,22 21,43 54,59 39,20 93,32 153,32l0 0zm175 13c-45,22 -107,36 -175,36l0 0c-68,0 -130,-14 -175,-36 -51,-25 -82,-62 -82,-104 0,-42 31,-78 82,-104 45,-22 107,-36 175,-36 67,0 129,14 175,36 50,26 82,62 82,104 0,42 -32,79 -82,104z"/>
  <path class="fil1" d="M233 1375c128,0 232,-52 232,-115 0,-64 -104,-115 -232,-115 -127,0 -232,51 -232,115 0,63 105,115 232,115z"/>
  <path class="fil3" d="M233 1350c61,0 115,-11 153,-31 34,-16 54,-37 54,-59 0,-22 -20,-43 -54,-59 -38,-20 -92,-32 -153,-32 -60,0 -114,12 -152,32 -34,16 -55,37 -55,59 0,22 21,43 55,59 38,20 92,32 152,32l0 -1zm176 14c-46,22 -108,36 -176,36l0 0c-67,0 -129,-14 -175,-36 -50,-26 -82,-62 -82,-104 0,-42 32,-79 82,-104 46,-22 108,-36 175,-36 68,0 130,14 175,36 51,25 82,62 82,104 0,42 -31,78 -81,104z"/>
 </g>
</svg>
