<?xml version="1.0" encoding="UTF-8"?>
<!DOCTYPE svg PUBLIC "-//W3C//DTD SVG 1.1//EN" "http://www.w3.org/Graphics/SVG/1.1/DTD/svg11.dtd">
<!-- Creator: CorelDRAW X7 -->
<svg xmlns="http://www.w3.org/2000/svg" xml:space="preserve" version="1.1" style="shape-rendering:geometricPrecision; text-rendering:geometricPrecision; image-rendering:optimizeQuality; fill-rule:evenodd; clip-rule:evenodd"
viewBox="0 0 1698 1588"
 xmlns:xlink="http://www.w3.org/1999/xlink">
 <defs>
  <style type="text/css">
   <![CDATA[
    .fil0 {fill:#0B94DD}
    .fil2 {fill:#3F5A78}
    .fil1 {fill:#E56800}
   ]]>
  </style>
 </defs>
 <g id="Слой_x0020_1">
  <metadata id="CorelCorpID_0Corel-Layer"/>
  <polygon class="fil0" points="1,1588 1,165 465,165 465,1588 "/>
  <polygon class="fil1" points="1235,1588 1235,849 1699,849 1699,1588 "/>
  <polygon class="fil1" points="618,632 618,165 1082,165 1082,632 "/>
  <polygon class="fil2" points="0,110 0,3 159,3 159,110 "/>
  <polygon class="fil2" points="617,794 617,686 776,686 776,794 "/>
  <polygon class="fil2" points="461,110 461,3 621,3 621,110 "/>
  <polygon class="fil2" points="1079,794 1079,686 1238,686 1238,794 "/>
  <polygon class="fil2" points="923,110 923,3 1082,3 1082,110 "/>
  <polygon class="fil2" points="1540,794 1540,686 1699,686 1699,794 "/>
  <polygon class="fil2" points="231,110 231,3 390,3 390,110 "/>
  <polygon class="fil2" points="848,794 848,686 1007,686 1007,794 "/>
  <polygon class="fil2" points="692,110 692,3 851,3 851,110 "/>
  <polygon class="fil2" points="1309,794 1309,686 1468,686 1468,794 "/>
 </g>
</svg>
