<?xml version="1.0" encoding="UTF-8"?>
<!DOCTYPE svg PUBLIC "-//W3C//DTD SVG 1.1//EN" "http://www.w3.org/Graphics/SVG/1.1/DTD/svg11.dtd">
<!-- Creator: CorelDRAW X7 -->
<svg xmlns="http://www.w3.org/2000/svg" xml:space="preserve" version="1.1" style="shape-rendering:geometricPrecision; text-rendering:geometricPrecision; image-rendering:optimizeQuality; fill-rule:evenodd; clip-rule:evenodd"
viewBox="0 0 1800 1800"
 xmlns:xlink="http://www.w3.org/1999/xlink">
 <defs>
  <style type="text/css">
   <![CDATA[
    .fil3 {fill:#00965F}
    .fil0 {fill:#0B94DD}
    .fil2 {fill:#42ADE4}
    .fil1 {fill:#84C9ED}
    .fil4 {fill:#84C9ED}
   ]]>
  </style>
 </defs>
 <g id="Слой_x0020_1">
  <metadata id="CorelCorpID_0Corel-Layer"/>
  <g id="_1111713488">
   <polygon class="fil0" points="1325,1074 1373,1102 1401,1139 1420,1140 1471,1099 1478,1015 1313,1015 1268,1060 1249,1060 1235,1085 1272,1085 "/>
   <polygon class="fil0" points="1235,1085 1249,1060 1268,1060 1313,1015 1088,1015 1083,1015 1062,1085 1197,1085 "/>
   <polygon class="fil1" points="357,993 357,757 274,757 181,757 181,895 340,1084 340,1035 357,1041 "/>
   <polygon class="fil2" points="181,757 274,757 274,657 264,644 288,586 270,573 194,573 109,595 96,565 72,565 65,672 41,720 58,757 "/>
   <polygon class="fil1" points="337,1194 442,1256 503,1256 503,993 357,993 357,1041 340,1035 340,1084 359,1120 341,1149 "/>
   <polygon class="fil2" points="337,1194 341,1149 359,1120 340,1084 181,895 181,757 58,757 66,815 52,836 76,866 71,905 105,950 137,936 142,950 114,984 160,1076 166,1114 247,1151 259,1201 "/>
   <polygon class="fil3" points="503,993 681,993 716,993 716,852 716,805 653,805 503,805 "/>
   <polygon class="fil1" points="681,1020 681,993 503,993 503,1256 530,1256 529,1238 579,1238 583,1229 681,1229 "/>
   <polygon class="fil0" points="770,1020 681,1020 681,1229 583,1229 579,1238 618,1287 629,1334 676,1374 695,1360 698,1329 729,1331 779,1433 796,1490 852,1520 862,1511 843,1452 877,1385 898,1382 954,1332 966,1271 949,1232 949,1180 949,1163 932,1150 921,1142 880,1152 870,1132 826,1130 770,1110 "/>
   <polygon class="fil1" points="770,1020 770,1110 826,1130 870,1132 880,1152 921,1142 932,1150 932,1025 932,993 716,993 681,993 681,1020 "/>
   <polygon class="fil1" points="949,1232 966,1271 954,1332 1006,1345 1018,1335 1040,1365 1090,1365 1078,1312 1073,1274 1019,1274 1038,1219 1031,1180 949,1180 "/>
   <polygon class="fil1" points="949,1180 1031,1180 1027,1164 1059,1093 1062,1085 1056,1025 932,1025 932,1150 949,1163 "/>
   <polygon class="fil1" points="716,993 932,993 932,900 909,852 716,852 "/>
   <polygon class="fil0" points="446,757 446,640 446,610 653,610 653,564 653,429 270,429 270,573 288,586 264,644 274,657 274,757 357,757 "/>
   <polygon class="fil3" points="194,573 270,573 270,429 101,429 122,471 126,501 104,527 88,517 106,500 97,470 66,470 55,453 46,475 57,519 69,523 72,565 96,565 109,595 "/>
   <polygon class="fil1" points="446,640 446,757 446,805 503,805 653,805 653,710 653,610 446,610 "/>
   <polygon class="fil1" points="653,429 653,564 873,564 853,429 "/>
   <polygon class="fil0" points="873,564 653,564 653,610 653,710 816,710 830,726 860,727 881,753 878,621 863,598 "/>
   <polygon class="fil1" points="816,710 653,710 653,805 716,805 716,852 909,852 896,824 881,753 860,727 830,726 "/>
   <polygon class="fil2" points="878,621 881,753 896,824 1023,824 1071,760 1049,736 1034,720 1034,660 982,633 999,541 1079,475 1018,461 997,474 933,440 928,410 914,410 913,429 853,429 873,564 863,598 "/>
   <polygon class="fil3" points="1023,824 896,824 909,852 932,900 932,993 932,1025 1056,1025 1062,1085 1083,1015 1088,1015 1069,901 1051,902 "/>
   <polygon class="fil3" points="1235,1085 1197,1085 1217,1217 1214,1276 1213,1288 1294,1296 1317,1290 1331,1236 1333,1227 1303,1160 1264,1106 1272,1085 "/>
   <polygon class="fil3" points="1294,1296 1213,1288 1214,1276 1143,1276 1139,1309 1145,1308 1183,1302 1208,1340 1239,1319 1271,1360 1284,1362 1278,1425 1317,1523 1328,1525 1330,1559 1342,1558 1362,1467 1317,1290 "/>
   <polygon class="fil2" points="1303,1160 1333,1227 1342,1199 1371,1198 1401,1139 1373,1102 1325,1074 1272,1085 1264,1106 "/>
   <polygon class="fil2" points="1088,1015 1313,1015 1478,1015 1446,919 1410,865 1347,978 1304,985 1287,927 1219,902 1178,953 1122,962 "/>
   <polygon class="fil4" points="1313,1015 1478,1015 1446,919 1410,865 1347,978 1304,985 "/>
   <polygon class="fil3" points="1547,786 1607,789 1601,755 1551,755 "/>
   <polygon class="fil1" points="1502,950 1478,919 1480,981 1490,982 "/>
   <polygon class="fil1" points="1132,603 1161,577 1245,573 1230,546 1145,548 1106,518 1058,547 "/>
   <polygon class="fil3" points="1624,607 1636,712 1655,672 1683,671 1693,638 1743,629 1743,610 1722,574 1720,513 1677,500 1649,554 1652,577 "/>
   <polygon class="fil2" points="1219,902 1219,772 1164,772 1143,776 1143,890 1122,962 1178,953 "/>
   <polygon class="fil3" points="1556,725 1551,755 1601,755 1617,755 1626,778 1645,767 1631,722 "/>
   <polygon class="fil3" points="1601,755 1607,789 1626,778 1617,755 "/>
   <polygon class="fil2" points="1257,772 1289,720 1280,662 1264,665 1255,688 1245,682 1266,607 1226,590 1180,642 1173,685 1182,703 1164,772 1219,772 "/>
   <polygon class="fil2" points="1280,785 1257,772 1219,772 1219,902 1287,927 1350,863 1350,761 "/>
   <polygon class="fil3" points="1555,618 1554,677 1561,691 1556,725 1580,724 1614,618 "/>
   <polygon class="fil3" points="1614,618 1580,724 1631,722 1636,712 1624,607 "/>
   <polygon class="fil4" points="1410,865 1350,863 1287,927 1304,985 1347,978 "/>
   <polygon class="fil1" points="1410,865 1446,919 1464,923 1464,881 1486,867 "/>
   <polygon class="fil1" points="1410,865 1487,867 1511,814 1505,761 1350,761 1350,863 "/>
   <polygon class="fil1" points="1136,736 1126,678 1162,614 1155,601 1119,634 1132,603 1058,547 999,541 982,633 1034,660 1034,720 1049,736 "/>
   <polygon class="fil1" points="1136,736 1049,736 1071,760 1023,824 1051,902 1069,901 1088,1015 1122,962 1143,890 1143,776 "/>
   <polygon class="fil3" points="1392,697 1350,761 1505,761 1547,806 1547,787 1607,789 1547,786 1551,755 1556,725 1561,691 1554,677 1555,618 1506,618 1471,660 1473,684 1457,697 "/>
   <polygon class="fil1" points="1511,814 1487,867 1478,894 1478,919 1502,950 1511,928 1499,887 1524,894 1540,854 1536,826 1587,815 1586,798 1547,806 1547,806 1547,806 1505,761 "/>
   <polygon class="fil1" points="1111,1213 1121,1085 1062,1085 1059,1093 1027,1164 1031,1180 1038,1219 1019,1274 1073,1274 1078,1312 1111,1310 "/>
   <polygon class="fil3" points="1121,1085 1111,1213 1111,1310 1139,1309 1143,1276 1214,1276 1217,1217 1197,1085 "/>
   <polygon class="fil2" points="357,757 357,993 503,993 503,805 446,805 446,757 "/>
  </g>
 </g>
</svg>
